<svg width="19" height="19" viewBox="0 0 19 19" fill="none" xmlns="http://www.w3.org/2000/svg">
<path d="M13.0625 19L5.9375 16.482L1.23737 18.3165C0.933375 18.4309 0.651146 18.3977 0.390687 18.217C0.130229 18.0364 0 17.7822 0 17.4544V2.79017C0 2.57594 0.0514585 2.3805 0.154375 2.20384C0.257292 2.02718 0.406917 1.90448 0.60325 1.83573L5.9375 0L13.0625 2.51799L17.7626 0.683453C18.0666 0.569144 18.3489 0.590728 18.6093 0.748202C18.8698 0.905676 19 1.14069 19 1.45324V16.3022C19 16.5316 18.9371 16.7306 18.8112 16.8993C18.6861 17.0687 18.5175 17.1879 18.3053 17.2566L13.0625 19ZM12.4688 17.5372V3.50839L6.53125 1.41607V15.4448L12.4688 17.5372ZM13.6562 17.5372L17.8125 16.1547V1.94604L13.6562 3.50959V17.5372ZM1.1875 17.054L5.34375 15.4448V1.41607L1.1875 2.84532V17.054Z" fill="#7B7B7B"/>
</svg>
