<svg width="70" height="76" viewBox="0 0 70 76" fill="none" xmlns="http://www.w3.org/2000/svg">
<path d="M36.4631 19.1777L48.4407 45.4072L59.0966 19.1777H66.0353C65.32 20.4088 65.1449 21.7808 65.2109 23.1922C66.1212 31.636 67.1125 40.1174 68.0195 48.6005C68.2755 50.6872 68.4721 52.8346 70.0003 54.4214H60.9139C62.0968 53.1297 62.1496 51.4101 62.0769 49.743C61.6904 40.7584 59.9838 31.2409 59.3378 22.1874C59.2932 21.5628 59.2915 20.9481 59.2601 20.3252L45.386 53.6018C43.6249 49.2726 41.7316 44.9663 39.797 40.7043C37.5072 35.6603 32.3973 22.7267 28.3563 19.7629C28.0424 19.5334 27.75 19.3548 27.375 19.1777H36.4614H36.4631Z" fill="#42403E"/>
<path d="M10.0297 0.820312L8.88973 1.57109C4.11852 5.11513 3.95332 11.4033 7.79771 15.7374C15.1792 24.0582 33.1836 27.7285 29.478 41.9981C28.1645 47.0551 23.1141 51.2827 17.8556 51.7761C17.6689 51.7942 17.1105 51.9417 17.1353 51.6352C22.6945 50.5779 25.8649 44.1897 23.3917 39.113C22.1543 36.5705 19.5456 34.7854 17.2856 33.2052C11.462 29.1399 1.30834 24.1418 0.140315 16.4505C-0.862497 9.85581 3.62125 2.75462 10.0297 0.820312Z" fill="#42403E"/>
<path d="M13.9953 37.2106C13.9755 37.6631 13.5195 37.8483 13.2998 38.2417C12.667 39.381 12.5646 41.2186 12.5018 42.5316C12.2193 48.3444 12.1796 55.9275 12.5018 61.7238C12.6505 64.3892 13.2238 67.3546 14.9188 69.4889C18.327 73.7837 25.9795 73.9198 29.8553 70.1577C30.07 70.3889 28.1503 72.3035 27.8761 72.5363C23.503 76.2442 16.0108 76.4442 11.2991 73.2444C8.11553 71.0823 6.33459 67.3005 6.06034 63.5254C5.52342 56.1422 6.72283 47.8854 6.06365 40.5727C5.94965 39.3154 5.45238 38.1155 4.58008 37.209H13.9969L13.9953 37.2106Z" fill="#42403E"/>
<path d="M35.1418 37.209L38.2708 44.8413C38.3666 51.8786 38.1717 58.8306 38.1072 65.8056C38.0924 67.4645 38.0891 72.2494 38.5797 73.5477C38.811 74.1575 39.1976 74.587 39.6007 75.0755H31.8359L32.0011 37.209H35.1401H35.1418Z" fill="#42403E"/>
<path d="M27.3757 0.819621L27.0486 7.86672C26.0804 4.76692 23.4189 2.35067 20.4981 1.00649L17.4648 0C20.7508 0.124582 24.1723 2.09331 27.3757 0.819621Z" fill="#42403E"/>
</svg>
