<svg width="38" height="40" viewBox="0 0 38 40" fill="none" xmlns="http://www.w3.org/2000/svg">
<path d="M19.5324 9.83401L25.9486 23.8848L31.6568 9.83401H35.3738C34.9906 10.4935 34.8968 11.2285 34.9322 11.9845C35.4198 16.5077 35.9508 21.0511 36.4367 25.5953C36.5738 26.7132 36.6792 27.8635 37.4978 28.7135H32.6303C33.264 28.0216 33.2923 27.1004 33.2534 26.2074C33.0463 21.3944 32.1321 16.2961 31.786 11.4462C31.7621 11.1117 31.7613 10.7824 31.7444 10.4487L24.3123 28.2745C23.3689 25.9554 22.3547 23.6485 21.3183 21.3654C20.0917 18.6635 17.3544 11.7351 15.1897 10.1475C15.0216 10.0246 14.865 9.92885 14.6641 9.83401H19.5315H19.5324Z" fill="#F9F6F2"/>
<path d="M5.37274 0L4.76209 0.402177C2.20623 2.30066 2.11773 5.66912 4.17711 7.99086C8.13126 12.4482 17.7759 14.4143 15.7909 22.0583C15.0873 24.7673 12.3819 27.0319 9.56495 27.2962C9.46495 27.3059 9.16582 27.3849 9.17909 27.2207C12.1571 26.6543 13.8554 23.2323 12.5306 20.5128C11.8677 19.1508 10.4703 18.1946 9.25963 17.3481C6.14003 15.1703 0.700855 12.493 0.0751646 8.37284C-0.462027 4.84018 1.93985 1.03618 5.37274 0Z" fill="#F9F6F2"/>
<path d="M7.4967 19.4933C7.48608 19.7356 7.24183 19.8349 7.12412 20.0456C6.78517 20.6559 6.7303 21.6403 6.69667 22.3436C6.54534 25.4574 6.5241 29.5196 6.69667 32.6246C6.77632 34.0524 7.08341 35.641 7.99142 36.7843C9.81716 39.0849 13.9164 39.1578 15.9926 37.1425C16.1077 37.2664 15.0793 38.292 14.9324 38.4167C12.5898 40.403 8.5764 40.5101 6.05239 38.796C4.34701 37.6378 3.39299 35.612 3.24608 33.5897C2.95846 29.6346 3.60096 25.2116 3.24785 21.2943C3.18678 20.6208 2.9204 19.978 2.45312 19.4924H7.49759L7.4967 19.4933Z" fill="#F9F6F2"/>
<path d="M18.8246 19.4933L20.5008 23.5818C20.5521 27.3515 20.4477 31.0756 20.4131 34.812C20.4052 35.7007 20.4034 38.2639 20.6663 38.9594C20.7902 39.286 20.9972 39.5161 21.2132 39.7778H17.0537L17.1422 19.4933H18.8237H18.8246Z" fill="#F9F6F2"/>
</svg>
