<?xml version="1.0" encoding="UTF-8"?>
<svg id="_레이어_2" data-name="레이어 2" xmlns="http://www.w3.org/2000/svg" viewBox="0 0 711.96 327.8">
  <defs>
    <style>
      .cls-1 {
        fill: #f7f6f2;
      }
    </style>
  </defs>
  <g id="_레이어_1-2" data-name="레이어 1">
    <g>
      <path class="cls-1" d="M710.9,13.81c-2.02,5.68-8.59,5.79-12.92,10.46-7.7,8.31-11.29,23.06-11.33,34.05-.27,67,.6,141.65.06,212.07-.05,6.67.69,13.34,2.48,19.76,2.12,7.62,5.6,14.83,12.48,19.48,2.2,1.48,1.16.34,10.3,7.24-34.99-.17-79.37,0-84.18,0,3.58-1.96,8.95-5.23,12.54-7.25,10.33-5.83,12.38-17.47,13.67-28.33l-.46-228.12c0-.83-.53-1.56-1.32-1.82h0c-.95-.31-1.99.16-2.37,1.09l-108.01,262.9c-2.2,1.64-4.56,1.66-6.66-.06L423.5,56.82c-1.82,1.2-1.67,18.28-1.54,24.52,1.04,48.64,7.4,130.23-5.69,175.22-28.33,97.34-164.43,90.29-178.14-11.39-8.69-64.49,2.11-138.31-2.14-203.86-.97-5.96-1.96-13.22-5.97-18.03s-10.76-5.27-15.02-9.47h77.99s-11.7,4.78-11.7,4.78c-8.61,5.19-9.72,14.64-11.28,23.72,2.07,61.13-2.8,124.11-.06,185.03,1.84,40.87,14.08,75.39,58.84,83.16,63.36,11,83.89-48.08,86.25-99.16,2.38-51.67-1.86-105.17-.05-157.03-1.82-18.26-13.07-36.13-28.7-40.5h56.72l106.51,251.99L654.62,13.81h56.27Z"/>
      <path class="cls-1" d="M180,73.8c-3.01,3.55-5.42-12.8-5.72-13.78-6.3-20.52-15.75-32.95-34.96-43.04-42.7-22.43-109.51-1.77-104.3,54.3,4.68,50.42,88.57,66.77,125.29,90.71,72.22,47.08,59.19,135.38-23.32,160.31-45.5,13.75-96.74.09-137-22.5v-71c2.56-.43,4.97,13.54,6.71,18.79,12.19,36.56,46.06,69.49,85.8,72.2,50.09,3.43,92.37-29.64,80.83-82.83-14.95-68.88-128.88-60.73-158.53-124.47-11.27-24.24-6.73-56.54,10.22-77.16,10.09-12.28,23.09-21.84,37.88-27.66S92.63-.12,107.92,0c15.85.13,31.64,2.6,46.99,6.46,7.07,1.77,14.1,3.78,20.98,6.17,6.08,2.12,4.1,8.83,4.1,13.9v47.26Z"/>
    </g>
  </g>
</svg>